<svg t="1572610232532" class="icon" viewBox="0 0 1024 1024" version="1.1" xmlns="http://www.w3.org/2000/svg" p-id="6038" width="32" height="32"><path d="M945.600419 910.363893 813.748439 681.985486c81.002872-52.735062 134.568858-144.072303 134.568858-247.932766 0-163.28283-132.369773-295.646464-295.65465-295.646464S357.006973 270.76989 357.006973 434.05272s132.369773 295.64851 295.65465 295.64851c42.524512 0 82.943061-8.994861 119.482255-25.157983l132.4895 229.468229c6.531763 11.313673 20.996197 15.187911 32.307823 8.656147C948.255899 936.136883 952.132182 921.671427 945.600419 910.363893zM652.661623 682.399925c-137.15987 0-248.349251-111.189382-248.349251-248.347205s111.189382-248.345158 248.349251-248.345158S901.012921 296.894897 901.012921 434.05272 789.821493 682.399925 652.661623 682.399925z" p-id="6039"></path><path d="M87.041402 209.361285l256.842693 0c7.655354 0 13.861706-6.204305 13.861706-13.861706l0-19.584034c0-7.6574-6.206352-13.861706-13.861706-13.861706L87.041402 162.053839c-7.655354 0-13.861706 6.204305-13.861706 13.861706l0 19.584034C73.179696 203.15698 79.386048 209.361285 87.041402 209.361285z" p-id="6040"></path><path d="M343.888188 528.661472 87.037309 528.661472c-7.653307 0-13.857613 6.204305-13.857613 13.861706l0 19.584034c0 7.65126 6.204305 13.855566 13.857613 13.855566l256.850879 0c7.653307 0 13.857613-6.204305 13.857613-13.855566l0-19.584034C357.7458 534.865777 351.541495 528.661472 343.888188 528.661472z" p-id="6041"></path><path d="M343.888188 871.612311 87.037309 871.612311c-7.653307 0-13.857613 6.204305-13.857613 13.861706l0 19.584034c0 7.655354 6.204305 13.861706 13.857613 13.861706l256.850879 0c7.653307 0 13.857613-6.206352 13.857613-13.861706l0-19.584034C357.7458 877.816616 351.541495 871.612311 343.888188 871.612311z" p-id="6042"></path></svg>